<?xml version="1.0" encoding="UTF-8" standalone="no"?><svg xmlns="http://www.w3.org/2000/svg" xmlns:xlink="http://www.w3.org/1999/xlink" contentScriptType="application/ecmascript" contentStyleType="text/css" height="372px" preserveAspectRatio="none" style="width:321px;height:372px;" version="1.1" viewBox="0 0 321 372" width="321px" zoomAndPan="magnify"><defs><filter height="300%" id="f1jovoymx28c9t" width="300%" x="-1" y="-1"><feGaussianBlur result="blurOut" stdDeviation="2.0"/><feColorMatrix in="blurOut" result="blurOut2" type="matrix" values="0 0 0 0 0 0 0 0 0 0 0 0 0 0 0 0 0 0 .4 0"/><feOffset dx="4.0" dy="4.0" in="blurOut2" result="blurOut3"/><feBlend in="SourceGraphic" in2="blurOut3" mode="normal"/></filter></defs><g><rect fill="#FEFECE" filter="url(#f1jovoymx28c9t)" height="40.2719" rx="12.5" ry="12.5" style="stroke: #A80036; stroke-width: 1.5;" width="76" x="10" y="170.6798"/><text fill="#000000" font-family="sans-serif" font-size="14" lengthAdjust="spacingAndGlyphs" textLength="56" x="20" y="196.9197">博客项目</text><rect fill="#FEFECE" filter="url(#f1jovoymx28c9t)" height="40.2719" rx="12.5" ry="12.5" style="stroke: #A80036; stroke-width: 1.5;" width="48" x="136" y="50.136"/><text fill="#000000" font-family="sans-serif" font-size="14" lengthAdjust="spacingAndGlyphs" textLength="28" x="146" y="76.3759">主页</text><rect fill="#FEFECE" filter="url(#f1jovoymx28c9t)" height="40.2719" rx="12.5" ry="12.5" style="stroke: #A80036; stroke-width: 1.5;" width="76" x="234" y="20"/><text fill="#000000" font-family="sans-serif" font-size="14" lengthAdjust="spacingAndGlyphs" textLength="56" x="244" y="46.2399">浏览文章</text><path d="M184,70.2719 L194,70.2719 C209,70.2719 209,40.136 224,40.136 L234,40.136 " fill="none" style="stroke: #A80036; stroke-width: 1.0;"/><rect fill="#FEFECE" filter="url(#f1jovoymx28c9t)" height="40.2719" rx="12.5" ry="12.5" style="stroke: #A80036; stroke-width: 1.5;" width="76" x="234" y="80.2719"/><text fill="#000000" font-family="sans-serif" font-size="14" lengthAdjust="spacingAndGlyphs" textLength="56" x="244" y="106.5118">搜索博客</text><path d="M184,70.2719 L194,70.2719 C209,70.2719 209,100.4079 224,100.4079 L234,100.4079 " fill="none" style="stroke: #A80036; stroke-width: 1.0;"/><path d="M86,190.8157 L96,190.8157 C111,190.8157 111,70.2719 126,70.2719 L136,70.2719 " fill="none" style="stroke: #A80036; stroke-width: 1.0;"/><rect fill="#FEFECE" filter="url(#f1jovoymx28c9t)" height="40.2719" rx="12.5" ry="12.5" style="stroke: #A80036; stroke-width: 1.5;" width="48" x="136" y="140.5438"/><text fill="#000000" font-family="sans-serif" font-size="14" lengthAdjust="spacingAndGlyphs" textLength="28" x="146" y="166.7838">登录</text><rect fill="#FEFECE" filter="url(#f1jovoymx28c9t)" height="40.2719" rx="12.5" ry="12.5" style="stroke: #A80036; stroke-width: 1.5;" width="76" x="234" y="140.5438"/><text fill="#000000" font-family="sans-serif" font-size="14" lengthAdjust="spacingAndGlyphs" textLength="56" x="244" y="166.7838">忘记密码</text><path d="M184,160.6798 L194,160.6798 C209,160.6798 209,160.6798 224,160.6798 L234,160.6798 " fill="none" style="stroke: #A80036; stroke-width: 1.0;"/><path d="M86,190.8157 L96,190.8157 C111,190.8157 111,160.6798 126,160.6798 L136,160.6798 " fill="none" style="stroke: #A80036; stroke-width: 1.0;"/><rect fill="#FEFECE" filter="url(#f1jovoymx28c9t)" height="40.2719" rx="12.5" ry="12.5" style="stroke: #A80036; stroke-width: 1.5;" width="48" x="136" y="200.8157"/><text fill="#000000" font-family="sans-serif" font-size="14" lengthAdjust="spacingAndGlyphs" textLength="28" x="146" y="227.0557">注册</text><rect fill="#FEFECE" filter="url(#f1jovoymx28c9t)" height="40.2719" rx="12.5" ry="12.5" style="stroke: #A80036; stroke-width: 1.5;" width="76" x="234" y="200.8157"/><text fill="#000000" font-family="sans-serif" font-size="14" lengthAdjust="spacingAndGlyphs" textLength="56" x="244" y="227.0557">邮件验证</text><path d="M184,220.9517 L194,220.9517 C209,220.9517 209,220.9517 224,220.9517 L234,220.9517 " fill="none" style="stroke: #A80036; stroke-width: 1.0;"/><path d="M86,190.8157 L96,190.8157 C111,190.8157 111,220.9517 126,220.9517 L136,220.9517 " fill="none" style="stroke: #A80036; stroke-width: 1.0;"/><rect fill="#FEFECE" filter="url(#f1jovoymx28c9t)" height="40.2719" rx="12.5" ry="12.5" style="stroke: #A80036; stroke-width: 1.5;" width="48" x="136" y="291.2236"/><text fill="#000000" font-family="sans-serif" font-size="14" lengthAdjust="spacingAndGlyphs" textLength="28" x="146" y="317.4635">管理</text><rect fill="#FEFECE" filter="url(#f1jovoymx28c9t)" height="40.2719" rx="12.5" ry="12.5" style="stroke: #A80036; stroke-width: 1.5;" width="76" x="234" y="261.0876"/><text fill="#000000" font-family="sans-serif" font-size="14" lengthAdjust="spacingAndGlyphs" textLength="56" x="244" y="287.3276">修改密码</text><path d="M184,311.3596 L194,311.3596 C209,311.3596 209,281.2236 224,281.2236 L234,281.2236 " fill="none" style="stroke: #A80036; stroke-width: 1.0;"/><rect fill="#FEFECE" filter="url(#f1jovoymx28c9t)" height="40.2719" rx="12.5" ry="12.5" style="stroke: #A80036; stroke-width: 1.5;" width="76" x="234" y="321.3596"/><text fill="#000000" font-family="sans-serif" font-size="14" lengthAdjust="spacingAndGlyphs" textLength="56" x="244" y="347.5995">文章管理</text><path d="M184,311.3596 L194,311.3596 C209,311.3596 209,341.4955 224,341.4955 L234,341.4955 " fill="none" style="stroke: #A80036; stroke-width: 1.0;"/><path d="M86,190.8157 L96,190.8157 C111,190.8157 111,311.3596 126,311.3596 L136,311.3596 " fill="none" style="stroke: #A80036; stroke-width: 1.0;"/><!--MD5=[8603700735391fc5893a5b460706eb8e]
@startmindmap
* 博客项目
** 主页
*** 浏览文章
*** 搜索博客
** 登录
*** 忘记密码
** 注册
*** 邮件验证
** 管理
*** 修改密码
*** 文章管理
@endmindmap

PlantUML version 1.2020.00(Sat Jan 11 20:30:53 CST 2020)
(GPL source distribution)
Java Runtime: OpenJDK Runtime Environment
JVM: OpenJDK 64-Bit Server VM
Java Version: 11.0.6+10-post-Ubuntu-1ubuntu119.10.1
Operating System: Linux
Default Encoding: UTF-8
Language: en
Country: US
--></g></svg>